<svg width="12" height="18" viewBox="0 0 12 18" fill="none" xmlns="http://www.w3.org/2000/svg">
<path d="M6.66667 18C5.74833 17.9968 4.86861 17.6668 4.21924 17.0817C3.56988 16.4967 3.20351 15.7041 3.2 14.8768C3.2 13.3993 5.6 9.47121 6.08 8.6904C6.14463 8.60369 6.23195 8.53263 6.33426 8.4835C6.43657 8.43437 6.55073 8.40867 6.66667 8.40867C6.7826 8.40867 6.89676 8.43437 6.99907 8.4835C7.10138 8.53263 7.1887 8.60369 7.25333 8.6904C7.73333 9.47121 10.1333 13.3993 10.1333 14.8768C10.1298 15.7041 9.76346 16.4967 9.11409 17.0817C8.46472 17.6668 7.585 17.9968 6.66667 18ZM6.66667 10.252C5.71479 11.6942 4.99643 13.2515 4.53333 14.8768C4.53333 15.3865 4.7581 15.8754 5.15817 16.2358C5.55825 16.5963 6.10087 16.7988 6.66667 16.7988C7.23246 16.7988 7.77508 16.5963 8.17516 16.2358C8.57524 15.8754 8.8 15.3865 8.8 14.8768C8.33691 13.2515 7.61854 11.6942 6.66667 10.252ZM2.66667 9.59133C1.95942 9.59133 1.28115 9.33821 0.781049 8.88766C0.280952 8.43711 0 7.82603 0 7.18885C0 6.09573 1.73333 3.24879 2.08 2.68421C2.14463 2.59749 2.23195 2.52644 2.33426 2.47731C2.43657 2.42818 2.55073 2.40248 2.66667 2.40248C2.7826 2.40248 2.89676 2.42818 2.99907 2.47731C3.10138 2.52644 3.1887 2.59749 3.25333 2.68421C3.6 3.24879 5.33333 6.09573 5.33333 7.18885C5.33333 7.82603 5.05238 8.43711 4.55228 8.88766C4.05219 9.33821 3.37391 9.59133 2.66667 9.59133ZM2.66667 4.25783C2.0688 5.17231 1.61978 6.15939 1.33333 7.18885C1.33333 7.50744 1.47381 7.81298 1.72386 8.03826C1.97391 8.26353 2.31304 8.39009 2.66667 8.39009C3.02029 8.39009 3.35943 8.26353 3.60948 8.03826C3.85952 7.81298 4 7.50744 4 7.18885C3.71356 6.15939 3.26453 5.17231 2.66667 4.25783ZM9.33333 7.18885C8.62609 7.18885 7.94781 6.93574 7.44772 6.48518C6.94762 6.03463 6.66667 5.42355 6.66667 4.78638C6.66667 3.69325 8.4 0.846314 8.74667 0.281732C8.8113 0.195018 8.89862 0.123962 9.00093 0.0748305C9.10324 0.0256988 9.2174 0 9.33333 0C9.44927 0 9.56343 0.0256988 9.66574 0.0748305C9.76805 0.123962 9.85537 0.195018 9.92 0.281732C10.2667 0.846314 12 3.69325 12 4.78638C12 5.42355 11.719 6.03463 11.219 6.48518C10.7189 6.93574 10.0406 7.18885 9.33333 7.18885ZM9.33333 1.85535C8.73547 2.76983 8.28645 3.75691 8 4.78638C8 5.10496 8.14048 5.4105 8.39052 5.63578C8.64057 5.86106 8.97971 5.98761 9.33333 5.98761C9.68696 5.98761 10.0261 5.86106 10.2761 5.63578C10.5262 5.4105 10.6667 5.10496 10.6667 4.78638C10.3802 3.75691 9.9312 2.76983 9.33333 1.85535Z" fill="white"/>
</svg>
