<svg width="12" height="12" viewBox="0 0 12 12" fill="none" xmlns="http://www.w3.org/2000/svg">
<path d="M11 11L9.05556 9.05556M8.77778 4.88889C8.77778 5.39959 8.67719 5.90528 8.48175 6.3771C8.28632 6.84892 7.99987 7.27763 7.63875 7.63875C7.27763 7.99987 6.84892 8.28632 6.3771 8.48175C5.90528 8.67719 5.39959 8.77778 4.88889 8.77778C4.37819 8.77778 3.8725 8.67719 3.40068 8.48175C2.92885 8.28632 2.50015 7.99987 2.13903 7.63875C1.77791 7.27763 1.49146 6.84892 1.29602 6.3771C1.10059 5.90528 1 5.39959 1 4.88889C1 3.85749 1.40972 2.86834 2.13903 2.13903C2.86834 1.40972 3.85749 1 4.88889 1C5.92029 1 6.90944 1.40972 7.63875 2.13903C8.36806 2.86834 8.77778 3.85749 8.77778 4.88889Z" stroke="#2C2C2C" stroke-width="2" stroke-linecap="round"/>
</svg>
