<svg width="9" height="17" viewBox="0 0 9 17" fill="none" xmlns="http://www.w3.org/2000/svg">
<path d="M5.2485 5.19086C5.2485 4.99195 5.16948 4.80118 5.02883 4.66053C4.88818 4.51988 4.69742 4.44086 4.4985 4.44086C4.29959 4.44086 4.10882 4.51988 3.96817 4.66053C3.82752 4.80118 3.7485 4.99195 3.7485 5.19086L3.7505 10.0859C3.32024 10.2599 2.9639 10.5782 2.74257 10.9861C2.52123 11.3941 2.44867 11.8664 2.53733 12.3219C2.62599 12.7775 2.87034 13.1881 3.22851 13.4833C3.58668 13.7785 4.03637 13.9399 4.5005 13.9399C4.96464 13.9399 5.41433 13.7785 5.7725 13.4833C6.13067 13.1881 6.37502 12.7775 6.46368 12.3219C6.55233 11.8664 6.47978 11.3941 6.25844 10.9861C6.0371 10.5782 5.68077 10.2599 5.2505 10.0859L5.2485 5.19086ZM1.0005 3.44086V3.43886C1.01601 2.52151 1.39132 1.64697 2.04554 1.00372C2.69976 0.360467 3.58052 0 4.498 0C5.41549 0 6.29624 0.360467 6.95046 1.00372C7.60468 1.64697 7.97999 2.52151 7.9955 3.43886V9.10686C8.5309 9.76723 8.86828 10.5658 8.96858 11.41C9.06887 12.2542 8.92797 13.1095 8.5622 13.877C8.19643 14.6444 7.62075 15.2925 6.90182 15.7463C6.1829 16.2 5.35015 16.4408 4.5 16.4408C3.64986 16.4408 2.8171 16.2 2.09818 15.7463C1.37926 15.2925 0.803574 14.6444 0.437802 13.877C0.0720303 13.1095 -0.068867 12.2542 0.031427 11.41C0.131721 10.5658 0.469104 9.76723 1.0045 9.10686C1.0045 7.36986 0.996502 5.12686 0.996502 3.44086H1.0005ZM2.5005 3.43886C2.4955 5.51886 2.5045 7.60086 2.5045 9.68186L2.3045 9.89786C1.90664 10.3255 1.64229 10.8601 1.54388 11.4358C1.44548 12.0116 1.5173 12.6036 1.75054 13.1391C1.98377 13.6747 2.36828 14.1305 2.85687 14.4506C3.34546 14.7707 3.91688 14.9412 4.501 14.9412C5.08513 14.9412 5.65654 14.7707 6.14513 14.4506C6.63372 14.1305 7.01823 13.6747 7.25147 13.1391C7.48471 12.6036 7.55653 12.0116 7.45812 11.4358C7.35972 10.8601 7.09536 10.3255 6.6975 9.89786L6.4965 9.68186V3.43886C6.4965 2.90896 6.286 2.40076 5.9113 2.02606C5.5366 1.65136 5.02841 1.44086 4.4985 1.44086C3.9686 1.44086 3.4604 1.65136 3.0857 2.02606C2.71101 2.40076 2.5005 2.90896 2.5005 3.43886Z" fill="white"/>
</svg>
