<svg width="18" height="14" viewBox="0 0 18 14" fill="none" xmlns="http://www.w3.org/2000/svg">
<path d="M13.5 11.4545C13.5 12.1296 13.2291 12.7771 12.7468 13.2545C12.2646 13.7318 11.6106 14 10.9286 14C9.82768 14 8.76295 13.2897 8.39732 12.312C8.34169 12.1547 8.35068 11.9819 8.42237 11.831C8.49407 11.6801 8.62272 11.5631 8.78067 11.5052C8.93862 11.4472 9.11324 11.453 9.26697 11.5211C9.42069 11.5893 9.54124 11.7145 9.60268 11.8698C9.78268 12.351 10.3661 12.7273 10.9286 12.7273C11.2696 12.7273 11.5966 12.5932 11.8377 12.3545C12.0788 12.1158 12.2143 11.7921 12.2143 11.4545C12.2143 11.117 12.0788 10.7933 11.8377 10.5546C11.5966 10.3159 11.2696 10.1818 10.9286 10.1818H1.92857C1.75808 10.1818 1.59456 10.1148 1.474 9.99543C1.35344 9.87609 1.28571 9.71423 1.28571 9.54545C1.28571 9.37668 1.35344 9.21482 1.474 9.09548C1.59456 8.97614 1.75808 8.90909 1.92857 8.90909H10.9286C11.6106 8.90909 12.2646 9.17727 12.7468 9.65464C13.2291 10.132 13.5 10.7794 13.5 11.4545ZM8.35714 5.09091C9.03913 5.09091 9.69318 4.82273 10.1754 4.34536C10.6577 3.868 10.9286 3.22055 10.9286 2.54545C10.9286 1.87036 10.6577 1.22291 10.1754 0.745546C9.69318 0.268181 9.03913 0 8.35714 0C7.25625 0 6.19152 0.710341 5.82589 1.68795C5.77026 1.84535 5.77925 2.01807 5.85095 2.16896C5.92264 2.31986 6.0513 2.43687 6.20925 2.49482C6.3672 2.55278 6.54181 2.54705 6.69554 2.47886C6.84926 2.41068 6.96981 2.28549 7.03125 2.13023C7.21125 1.64898 7.79464 1.27273 8.35714 1.27273C8.69814 1.27273 9.02516 1.40682 9.26628 1.6455C9.5074 1.88418 9.64286 2.20791 9.64286 2.54545C9.64286 2.883 9.5074 3.20673 9.26628 3.44541C9.02516 3.68409 8.69814 3.81818 8.35714 3.81818H0.642857C0.472361 3.81818 0.308848 3.88523 0.188288 4.00457C0.0677294 4.12391 0 4.28577 0 4.45455C0 4.62332 0.0677294 4.78518 0.188288 4.90452C0.308848 5.02386 0.472361 5.09091 0.642857 5.09091H8.35714ZM15.4286 2.54545C14.3277 2.54545 13.2629 3.2558 12.8973 4.23341C12.8417 4.3908 12.8507 4.56352 12.9224 4.71442C12.9941 4.86531 13.1227 4.98232 13.2807 5.04027C13.4386 5.09823 13.6132 5.0925 13.767 5.02432C13.9207 4.95613 14.0412 4.83094 14.1027 4.67568C14.2827 4.19443 14.8661 3.81818 15.4286 3.81818C15.7696 3.81818 16.0966 3.95227 16.3377 4.19096C16.5788 4.42964 16.7143 4.75336 16.7143 5.09091C16.7143 5.42846 16.5788 5.75218 16.3377 5.99086C16.0966 6.22955 15.7696 6.36364 15.4286 6.36364H1.28571C1.11522 6.36364 0.951705 6.43068 0.831146 6.55002C0.710587 6.66936 0.642857 6.83123 0.642857 7C0.642857 7.16877 0.710587 7.33064 0.831146 7.44998C0.951705 7.56932 1.11522 7.63636 1.28571 7.63636H15.4286C16.1106 7.63636 16.7646 7.36818 17.2468 6.89082C17.7291 6.41345 18 5.76601 18 5.09091C18 4.41581 17.7291 3.76837 17.2468 3.291C16.7646 2.81364 16.1106 2.54545 15.4286 2.54545Z" fill="white"/>
</svg>
